<svg preserveAspectRatio="none" width="100%" height="100%" overflow="visible" style="display: block;" viewBox="0 0 16 16" fill="none" xmlns="http://www.w3.org/2000/svg">
<g id="fluent-mdl2:location-dot">
<path id="Vector" d="M8 5C8.41146 5 8.79948 5.07812 9.16406 5.23438C9.52865 5.39062 9.84635 5.60677 10.1172 5.88281C10.388 6.15885 10.6016 6.47656 10.7578 6.83594C10.9141 7.19531 10.9948 7.58333 11 8C11 8.41146 10.9219 8.79948 10.7656 9.16406C10.6094 9.52865 10.3932 9.84635 10.1172 10.1172C9.84115 10.388 9.52344 10.6016 9.16406 10.7578C8.80469 10.9141 8.41667 10.9948 8 11C7.58854 11 7.20052 10.9219 6.83594 10.7656C6.47135 10.6094 6.15365 10.3932 5.88281 10.1172C5.61198 9.84115 5.39844 9.52344 5.24219 9.16406C5.08594 8.80469 5.00521 8.41667 5 8C5 7.58854 5.07812 7.20052 5.23438 6.83594C5.39062 6.47135 5.60677 6.15365 5.88281 5.88281C6.15885 5.61198 6.47656 5.39844 6.83594 5.24219C7.19531 5.08594 7.58333 5.00521 8 5Z" fill="var(--fill-0, #038232)"/>
</g>
</svg>
