<svg preserveAspectRatio="none" width="100%" height="100%" overflow="visible" style="display: block;" viewBox="0 0 56 56" fill="none" xmlns="http://www.w3.org/2000/svg">
<g id="Group">
<g id="Vector">
</g>
<path id="Vector_2" d="M9.10788 44.4148H16.0681V27.5113L6.125 20.0541V41.4319C6.125 43.0824 7.46244 44.4148 9.10788 44.4148Z" fill="var(--fill-0, #4285F4)"/>
<path id="Vector_3" d="M39.9317 44.4148H46.8921C48.5426 44.4148 49.875 43.0773 49.875 41.4319V20.0539L39.9317 27.5113" fill="var(--fill-0, #34A853)"/>
<path id="Vector_4" d="M39.9317 14.5852V27.5113L49.875 20.0541V16.0764C49.875 12.3876 45.6641 10.2845 42.716 12.497" fill="var(--fill-0, #FBBC04)"/>
<path id="Vector_5" d="M16.0683 27.5113V14.5854L28 23.5338L39.9317 14.5849V27.5111L28 36.4602" fill="var(--fill-0, #EA4335)"/>
<path id="Vector_6" d="M6.125 16.0766V20.0539L16.0681 27.5113V14.5854L13.284 12.4972C10.3309 10.2847 6.125 12.3878 6.125 16.0766Z" fill="var(--fill-0, #C5221F)"/>
</g>
</svg>
